<?xml version="1.0" standalone="no"?>
<!DOCTYPE svg PUBLIC "-//W3C//DTD SVG 20010904//EN"
 "http://www.w3.org/TR/2001/REC-SVG-20010904/DTD/svg10.dtd">
<svg version="1.0" xmlns="http://www.w3.org/2000/svg"
 width="200.000000pt" height="200.000000pt" viewBox="0 0 200.000000 200.000000"
 preserveAspectRatio="xMidYMid meet">
<metadata>
Created by potrace 1.11, written by Peter Selinger 2001-2013
</metadata>
<g transform="translate(0.000000,200.000000) scale(0.100000,-0.100000)"
fill="#000000" stroke="none">
<path d="M755 1810 c-27 -5 -104 -36 -171 -69 -112 -54 -122 -61 -126 -90 -3
-17 0 -35 6 -40 6 -5 160 -68 343 -141 l332 -131 130 66 c72 36 140 78 151 92
15 19 20 41 20 83 0 66 -18 89 -90 116 -53 19 -196 23 -252 6 -35 -9 -38 -9
-38 9 0 35 -18 56 -69 77 -57 25 -164 35 -236 22z m138 -131 c45 -12 39 -26
-22 -53 -38 -17 -40 -17 -100 5 -66 23 -67 31 -11 47 47 14 88 14 133 1z m343
-90 c24 -6 44 -15 44 -19 0 -5 -33 -25 -74 -46 l-74 -38 -38 17 c-22 9 -52 22
-69 28 l-30 11 27 14 c30 16 123 42 151 43 10 1 38 -4 63 -10z"/>
<path d="M1547 1190 c-15 -5 -70 -30 -122 -56 l-95 -48 0 -367 c0 -300 3 -374
15 -409 30 -86 28 -90 -92 -147 -145 -68 -159 -73 -195 -73 -42 0 -200 49
-193 59 5 10 -25 25 -33 16 -3 -3 1 -5 8 -5 7 0 11 -2 8 -5 -9 -10 -38 7 -31
18 4 6 0 8 -10 4 -10 -4 -17 -2 -17 4 0 6 -7 8 -16 5 -8 -3 -12 -2 -9 4 3 6 2
10 -2 10 -5 0 -18 7 -29 16 -10 8 -13 12 -6 9 19 -10 50 22 83 87 28 56 29 60
29 220 l0 163 -104 41 c-99 39 -104 40 -126 24 -19 -14 -23 -28 -26 -104 -3
-52 -1 -93 5 -100 6 -7 29 -19 51 -26 22 -7 45 -19 51 -27 20 -23 -31 -15 -96
16 -110 52 -194 168 -217 298 -14 86 -7 117 32 133 72 30 187 -10 294 -101 32
-27 61 -49 65 -49 4 0 19 25 34 55 19 40 27 71 27 109 0 53 -1 55 -57 105
-127 112 -266 149 -375 99 -72 -33 -109 -67 -138 -124 -24 -46 -25 -58 -25
-209 0 -179 9 -223 71 -330 45 -78 58 -99 65 -105 13 -11 29 -50 20 -50 -5 0
-18 -3 -28 -6 -15 -5 -15 -4 -3 5 13 9 12 11 -5 12 -11 1 -27 3 -35 4 -8 1
-21 3 -28 4 -7 0 -10 6 -6 12 4 8 -1 9 -16 4 -14 -4 -20 -3 -17 3 4 5 -11 17
-33 27 -48 22 -68 42 -86 92 l-15 38 6 -35 c10 -62 39 -103 95 -137 57 -35
679 -285 756 -304 92 -24 125 -12 473 163 233 117 337 175 368 204 24 22 43
46 43 53 0 7 -11 -1 -24 -17 -15 -17 -96 -65 -204 -120 -99 -51 -181 -92 -183
-92 -8 0 3 95 12 105 5 5 9 62 9 127 l0 118 50 25 c110 56 166 134 195 273 30
148 15 227 -52 260 -51 26 -82 31 -116 22z m38 -237 c-9 -38 -46 -84 -84 -106
l-31 -18 0 53 c0 54 0 54 43 75 61 31 81 30 72 -4z"/>
</g>
</svg>
